<?xml version="1.0" encoding="UTF-8" standalone="no"?>
<!-- Created with Inkscape (http://www.inkscape.org/) -->

<svg
   width="76.624519mm"
   height="40.630821mm"
   viewBox="0 0 76.62452 40.630821"
   version="1.1"
   id="svg1"
   xml:space="preserve"
   inkscape:version="1.4 (86a8ad7, 2024-10-11)"
   sodipodi:docname="minha-logo-branca.svg"
   xmlns:inkscape="http://www.inkscape.org/namespaces/inkscape"
   xmlns:sodipodi="http://sodipodi.sourceforge.net/DTD/sodipodi-0.dtd"
   xmlns="http://www.w3.org/2000/svg"
   xmlns:svg="http://www.w3.org/2000/svg"><sodipodi:namedview
     id="namedview1"
     pagecolor="#ffffff"
     bordercolor="#000000"
     borderopacity="0.25"
     inkscape:showpageshadow="2"
     inkscape:pageopacity="0.0"
     inkscape:pagecheckerboard="0"
     inkscape:deskcolor="#d1d1d1"
     inkscape:document-units="mm"
     showguides="true"
     inkscape:zoom="0.903317"
     inkscape:cx="-163.28709"
     inkscape:cy="84.687878"
     inkscape:window-width="1280"
     inkscape:window-height="961"
     inkscape:window-x="-8"
     inkscape:window-y="-8"
     inkscape:window-maximized="1"
     inkscape:current-layer="layer3"><inkscape:page
       x="4.4822158e-22"
       y="0"
       width="76.624519"
       height="40.630821"
       id="page1"
       margin="0"
       bleed="0" /></sodipodi:namedview><defs
     id="defs1" /><g
     inkscape:groupmode="layer"
     id="layer2"
     inkscape:label="Vetor"
     transform="translate(-46.937594,-309.58392)"
     style="display:inline"><path
       id="path1"
       style="fill:#ffffff;fill-opacity:1;stroke:none;stroke-width:0.132027;stroke-linecap:round;stroke-linejoin:round;stroke-dasharray:none;stroke-opacity:1"
       d="m 46.937595,309.58429 v 0.74292 c 4.562438,-0.063 4.619305,4.08022 4.54715,7.24157 v 16.135 c 0.355009,5.20769 -0.175807,6.50729 -4.54715,6.85226 v 0.63335 h 10.938726 v -0.63335 c -3.910405,-0.24308 -4.622076,-0.61828 -4.395661,-6.85226 v -19.31875 l 3.719565,8.02807 5.263505,0.0585 -5.998951,-12.88733 z m 31.868649,0 -5.93296,12.84997 h 2.273574 l 3.659386,-8.06749 v 8.06749 h 4.865484 v -4.86548 c 0.02497,-5.1902 -0.485163,-7.31231 4.668756,-7.24157 v -0.74292 z m 18.380762,0 v 0.74292 c 4.528804,0.005 4.495114,-0.0238 4.532624,7.24157 v 4.86548 h 4.8659 v -11.145 c 11.22042,-2.26221 13.05122,8.77726 7.56821,12.05975 v 3.45186 c 9.15054,5.15905 1.50033,15.95985 -7.56821,12.35068 v -8.7108 h -4.8659 v 3.26303 c 0.0551,6.81005 0.0606,6.72682 -4.532624,6.85226 v 0.63335 h 16.966734 c 13.07044,-1.13772 11.25488,-14.8597 2.28353,-16.25992 10.61322,-4.10118 5.90282,-15.42053 -5.04312,-15.34518 z m -28.73055,14.8297 c -0.337323,0 -0.617007,0.0508 -0.838376,0.15274 -0.217854,0.0984 -0.381232,0.23185 -0.490159,0.40051 -0.105413,0.16514 -0.158129,0.34798 -0.158129,0.54826 0,0.19677 0.04037,0.35827 0.12119,0.48476 0.08082,0.1265 0.184781,0.22859 0.311278,0.30589 0.13001,0.0738 0.272053,0.13508 0.426659,0.18427 0.15812,0.0457 0.3148,0.0861 0.469407,0.1212 0.158119,0.0352 0.300161,0.074 0.426659,0.11621 0.130009,0.0386 0.235442,0.0928 0.316259,0.16311 0.08082,0.0667 0.12119,0.1565 0.12119,0.26894 0,0.0914 -0.02803,0.17399 -0.08425,0.24778 -0.05622,0.0703 -0.144081,0.12634 -0.263549,0.16851 -0.119469,0.0422 -0.275733,0.0635 -0.468992,0.0635 -0.228396,0 -0.451601,-0.0389 -0.669456,-0.1162 -0.217854,-0.0773 -0.400685,-0.17375 -0.548264,-0.2897 l -0.236986,0.53208 c 0.154606,0.13 0.363586,0.23732 0.62712,0.32165 0.263535,0.0808 0.539456,0.1212 0.827586,0.1212 0.337323,0 0.616591,-0.0494 0.83796,-0.14776 0.221368,-0.1019 0.384745,-0.23537 0.490159,-0.40051 0.108927,-0.16866 0.163525,-0.35108 0.163525,-0.54785 0,-0.19326 -0.04037,-0.35329 -0.121191,-0.47979 -0.0773,-0.12649 -0.181268,-0.22669 -0.311278,-0.30049 -0.126496,-0.0738 -0.268539,-0.13361 -0.426659,-0.17929 -0.154606,-0.0457 -0.310871,-0.0861 -0.468992,-0.12119 -0.15812,-0.0386 -0.302459,-0.0772 -0.432469,-0.11579 -0.126496,-0.0386 -0.230045,-0.0914 -0.310863,-0.15814 -0.0773,-0.0703 -0.115795,-0.16148 -0.115795,-0.27392 0,-0.0949 0.02615,-0.17938 0.07886,-0.25317 0.05622,-0.0738 0.142198,-0.13362 0.258153,-0.1793 0.119468,-0.0457 0.274268,-0.0685 0.464012,-0.0685 0.161634,0 0.33024,0.0247 0.50593,0.0739 0.175689,0.0457 0.346179,0.11785 0.511327,0.21624 l 0.215819,-0.5325 c -0.161638,-0.10543 -0.351162,-0.18616 -0.569016,-0.24238 -0.217854,-0.0562 -0.437296,-0.0842 -0.658664,-0.0842 z m 23.13211,0.044 c -0.279398,0 -0.538115,0.0463 -0.776119,0.13945 -0.238013,0.0931 -0.444976,0.22443 -0.620897,0.39345 -0.175921,0.16558 -0.312225,0.36211 -0.408811,0.58977 -0.09659,0.22421 -0.144848,0.47094 -0.144848,0.74001 0,0.26904 0.04826,0.51733 0.144848,0.745 0.09659,0.2242 0.23289,0.42074 0.408811,0.58976 0.175921,0.16557 0.382884,0.29493 0.620897,0.38806 0.238004,0.0931 0.498663,0.13987 0.781515,0.13987 0.279406,0 0.536165,-0.0468 0.770724,-0.13987 0.238004,-0.0931 0.444975,-0.22249 0.620897,-0.38806 0.175921,-0.16557 0.312225,-0.3621 0.408811,-0.58976 0.09659,-0.22767 0.144848,-0.47596 0.144848,-0.745 0,-0.26907 -0.04826,-0.5158 -0.144848,-0.74001 -0.09659,-0.22766 -0.23289,-0.42419 -0.408811,-0.58977 -0.175922,-0.16902 -0.382893,-0.30032 -0.620897,-0.39345 -0.234559,-0.0931 -0.493268,-0.13945 -0.77612,-0.13945 z m 9.701914,0 c -0.28285,0 -0.5431,0.0463 -0.7811,0.13945 -0.23801,0.0897 -0.44692,0.21904 -0.626291,0.38805 -0.175921,0.16558 -0.312233,0.36212 -0.408812,0.58978 -0.09659,0.22766 -0.144847,0.47633 -0.144847,0.7454 0,0.26904 0.04826,0.51733 0.144847,0.745 0.09658,0.22766 0.232891,0.42572 0.408812,0.59474 0.175911,0.16557 0.381351,0.29493 0.615911,0.38806 0.23801,0.0897 0.49825,0.13489 0.7811,0.13489 0.25526,0 0.50702,-0.0382 0.75537,-0.11414 0.25181,-0.0794 0.47268,-0.19479 0.6624,-0.34656 v -1.44349 h -0.63625 v 1.12517 c -0.0742,0.0431 -0.14999,0.0793 -0.22786,0.10624 -0.16556,0.0552 -0.33818,0.0826 -0.51755,0.0826 -0.19316,0 -0.36883,-0.0308 -0.52751,-0.093 -0.15868,-0.0621 -0.29652,-0.15013 -0.41379,-0.26396 -0.11729,-0.11729 -0.2088,-0.2536 -0.27434,-0.40882 -0.0621,-0.15522 -0.0934,-0.32395 -0.0934,-0.50676 0,-0.18628 0.0313,-0.35735 0.0934,-0.51257 0.0656,-0.15523 0.15705,-0.28958 0.27434,-0.40341 0.11727,-0.11383 0.25665,-0.20188 0.41877,-0.26397 0.16212,-0.0621 0.33821,-0.093 0.52793,-0.093 0.19662,0 0.37576,0.0344 0.53789,0.10334 0.16557,0.0655 0.31926,0.16903 0.46069,0.31045 l 0.42417,-0.41379 c -0.16902,-0.19316 -0.37751,-0.33991 -0.62588,-0.43994 -0.2449,-0.10003 -0.521,-0.14982 -0.828,-0.14982 z m 8.5423,0 c -0.33114,0 -0.60529,0.0498 -0.8226,0.14982 -0.21387,0.0966 -0.3741,0.22789 -0.48103,0.39346 -0.10348,0.16212 -0.15523,0.34127 -0.15523,0.53789 0,0.19316 0.0398,0.35186 0.11912,0.47605 0.0793,0.12417 0.18087,0.22418 0.30505,0.30007 0.12763,0.0724 0.26742,0.13266 0.41919,0.18095 0.15522,0.0448 0.3085,0.0846 0.46028,0.11912 0.15522,0.0344 0.29501,0.0724 0.41918,0.11372 0.12764,0.0379 0.23112,0.0916 0.31045,0.16062 0.0793,0.0655 0.11912,0.15358 0.11912,0.26396 0,0.0897 -0.0274,0.17077 -0.0826,0.24321 -0.0552,0.069 -0.14171,0.12421 -0.25898,0.1656 -0.11729,0.0414 -0.27057,0.0618 -0.46028,0.0618 -0.22421,0 -0.44355,-0.0378 -0.65742,-0.11372 -0.21386,-0.0759 -0.39302,-0.17088 -0.53789,-0.28471 l -0.23283,0.52253 c 0.15177,0.12762 0.35679,0.23305 0.6155,0.31584 0.2587,0.0793 0.52979,0.11912 0.81264,0.11912 0.33114,0 0.6053,-0.0487 0.8226,-0.14526 0.21732,-0.10004 0.37755,-0.23092 0.48103,-0.39304 0.10693,-0.16557 0.16062,-0.34472 0.16062,-0.5379 0,-0.18971 -0.0398,-0.34688 -0.11911,-0.47106 -0.0759,-0.12418 -0.17744,-0.22265 -0.30506,-0.29509 -0.12418,-0.0724 -0.26395,-0.13071 -0.41918,-0.17556 -0.15178,-0.0448 -0.30548,-0.0846 -0.4607,-0.11912 -0.15523,-0.0379 -0.29654,-0.0757 -0.42416,-0.11372 -0.12418,-0.0379 -0.22613,-0.0897 -0.30547,-0.15522 -0.0759,-0.069 -0.11372,-0.15898 -0.11372,-0.26936 0,-0.0931 0.0259,-0.17576 0.0776,-0.24819 0.0552,-0.0724 0.13975,-0.13114 0.25358,-0.17598 0.11729,-0.0448 0.26903,-0.0672 0.4553,-0.0672 0.15868,0 0.32433,0.0243 0.4968,0.0726 0.17247,0.0448 0.33966,0.1155 0.50178,0.21208 l 0.21209,-0.52253 c -0.15868,-0.10347 -0.34478,-0.18304 -0.55865,-0.23823 -0.21386,-0.0552 -0.42972,-0.0826 -0.64704,-0.0826 z m -50.620868,0.009 v 3.68927 h 0.653684 v -2.4122 l 1.212324,1.99052 h 0.305468 l 1.212739,-2.02248 0.005,2.44416 h 0.648288 l -0.0054,-3.68927 H 62.67998 l -1.439766,2.44457 -1.464251,-2.44457 z m 5.671071,0 v 3.68927 h 0.685227 v -3.68927 z m 7.410078,0 -1.660149,3.68927 h 0.705979 l 0.365232,-0.85374 h 1.845671 l 0.366479,0.85374 h 0.716769 l -1.665545,-3.68927 z m 3.446886,0 v 3.68927 h 2.767054 v -0.57442 h -2.081827 v -1.01725 h 1.781341 v -0.56404 h -1.781341 v -0.95915 h 2.007951 v -0.57441 z m 4.168637,0 v 3.68927 h 2.61432 v -0.57981 H 80.59381 v -3.10946 z m 5.27471,0.0427 v 3.62203 h 1.800432 c 0.469118,0 0.822832,-0.0861 1.060836,-0.25858 0.238013,-0.17246 0.356932,-0.4142 0.356932,-0.72465 0,-0.21041 -0.04826,-0.38607 -0.144848,-0.52751 -0.09313,-0.14142 -0.220956,-0.24839 -0.383079,-0.32082 -0.04192,-0.0196 -0.08522,-0.0366 -0.129908,-0.0511 0.139499,-0.0747 0.252568,-0.17423 0.337011,-0.3009 0.08968,-0.13797 0.134472,-0.30363 0.134472,-0.4968 0,-0.2863 -0.113915,-0.51372 -0.341575,-0.68273 -0.22766,-0.17248 -0.558562,-0.25899 -0.993185,-0.25899 z m 9.846348,0 v 3.62203 h 0.672775 v -1.05544 h 0.817624 c 0.04849,0 0.09393,-0.003 0.140283,-0.006 l 0.739181,1.06124 h 0.724656 l -0.832151,-1.187 c 0.01655,-0.006 0.03454,-0.0117 0.05064,-0.0187 0.231113,-0.10349 0.408733,-0.24981 0.532907,-0.43953 0.124175,-0.19316 0.186352,-0.42293 0.186352,-0.68854 0,-0.40358 -0.137839,-0.71904 -0.413792,-0.9467 -0.2725,-0.22766 -0.650551,-0.34158 -1.133467,-0.34158 z m 9.329208,0 v 3.62203 h 2.71642 v -0.56404 h -2.04406 v -0.99858 h 1.74897 v -0.55366 h -1.74897 v -0.94172 h 1.97143 v -0.56403 z m -18.503195,0.52792 h 0.952095 c 0.234559,0 0.414129,0.0413 0.538304,0.1241 0.127628,0.0828 0.191332,0.20866 0.191332,0.37768 0,0.16557 -0.06371,0.28992 -0.191332,0.3727 -0.124175,0.0828 -0.303745,0.1241 -0.538304,0.1241 h -0.952095 z m 5.733327,0.0104 c 0.18282,0 0.351943,0.0309 0.507175,0.093 0.155216,0.0621 0.289587,0.15166 0.403417,0.26895 0.11383,0.11383 0.20188,0.2486 0.263963,0.40383 0.06555,0.15177 0.09836,0.32089 0.09836,0.50717 0,0.18626 -0.03282,0.35693 -0.09836,0.51216 -0.06208,0.15177 -0.150133,0.28613 -0.263963,0.40342 -0.11383,0.11383 -0.248201,0.20187 -0.403417,0.26396 -0.155232,0.0621 -0.324355,0.093 -0.507175,0.093 -0.182821,0 -0.35196,-0.0308 -0.507176,-0.093 -0.155232,-0.0621 -0.289587,-0.15013 -0.403417,-0.26396 -0.11383,-0.11729 -0.203407,-0.2536 -0.268944,-0.40882 -0.06209,-0.15522 -0.09338,-0.32395 -0.09338,-0.50676 0,-0.18628 0.03129,-0.3554 0.09338,-0.50717 0.06554,-0.15523 0.155114,-0.29 0.268944,-0.40383 0.117276,-0.11729 0.251638,-0.20686 0.403417,-0.26895 0.155216,-0.0621 0.324355,-0.093 0.507176,-0.093 z m 4.113435,0.0312 h 0.786496 c 0.29665,0 0.519056,0.0618 0.667381,0.18594 0.15177,0.12418 0.227855,0.30179 0.227855,0.5329 0,0.22766 -0.07608,0.4057 -0.227855,0.53333 -0.148325,0.12762 -0.370731,0.19133 -0.667381,0.19133 h -0.786496 z m -23.076911,0.071 0.693113,1.6145 h -1.38415 z m 13.230149,1.40864 h 1.086568 c 0.251802,0 0.445279,0.0433 0.579806,0.12949 0.134528,0.0828 0.201709,0.21367 0.201709,0.39305 0,0.18282 -0.06718,0.31564 -0.201709,0.39843 -0.134527,0.0828 -0.328004,0.12409 -0.579806,0.12409 h -1.086568 z m -25.038793,3.88226 4.675396,10.11529 c 0.43128,0.71716 0.862808,0.96382 1.294087,0 l 4.557526,-10.11529 h -2.234562 l -1.44101,3.26303 -1.49953,-3.26303 z m 17.989382,0 v 3.26303 c 10e-7,6.85214 7.3e-5,6.85227 -4.580354,6.85226 v 0.63335 l 14.114594,-0.10417 v -0.52918 c -4.668658,1e-5 -4.668756,-1.2e-4 -4.668756,-6.85226 v -3.26303 z m -20.575481,16.71356 c -0.2295,0 -0.440681,0.0381 -0.633347,0.11455 -0.192666,0.0736 -0.361016,0.17991 -0.505515,0.31875 -0.144499,0.136 -0.256432,0.29776 -0.335765,0.48476 -0.07934,0.187 -0.119117,0.39077 -0.119117,0.61177 0,0.22099 0.03978,0.42518 0.119117,0.61217 0.07934,0.18701 0.189533,0.34967 0.331199,0.48851 0.1445,0.136 0.313265,0.24224 0.505931,0.31874 0.195498,0.0736 0.406681,0.11082 0.633347,0.11082 0.2465,0 0.470364,-0.0424 0.67153,-0.12742 0.201166,-0.085 0.370834,-0.20829 0.509667,-0.3698 l -0.356932,-0.34032 c -0.107666,0.11899 -0.227916,0.20861 -0.361083,0.26811 -0.133166,0.0566 -0.277881,0.0847 -0.433714,0.0847 -0.155833,0 -0.298816,-0.0254 -0.429149,-0.0764 -0.127499,-0.051 -0.239433,-0.12315 -0.335765,-0.21665 -0.0935,-0.0935 -0.166967,-0.20411 -0.2208,-0.33161 -0.051,-0.1275 -0.07678,-0.26785 -0.07678,-0.42085 0,-0.153 0.02578,-0.29294 0.07678,-0.42044 0.05383,-0.1275 0.1273,-0.23811 0.2208,-0.33161 0.09633,-0.0935 0.208266,-0.16565 0.335765,-0.21665 0.130333,-0.051 0.273316,-0.0768 0.429149,-0.0768 0.155833,0 0.300548,0.0297 0.433714,0.0892 0.133167,0.0567 0.253417,0.14323 0.361083,0.2594 l 0.356932,-0.33576 c -0.138833,-0.16433 -0.308501,-0.28763 -0.509667,-0.3698 -0.201166,-0.085 -0.423715,-0.12742 -0.66738,-0.12742 z m 3.341882,0 c -0.229499,0 -0.441998,0.0381 -0.637497,0.11455 -0.1955,0.0765 -0.365582,0.18448 -0.510082,0.32331 -0.1445,0.136 -0.256432,0.29735 -0.335765,0.48435 -0.07934,0.18417 -0.119116,0.38662 -0.119116,0.60762 0,0.22099 0.03978,0.42518 0.119116,0.61217 0.07934,0.18417 0.191265,0.34553 0.335765,0.48436 0.1445,0.13599 0.314582,0.24224 0.510082,0.31874 0.195499,0.0765 0.409314,0.11497 0.641647,0.11497 0.229499,0 0.440682,-0.0385 0.633348,-0.11497 0.195499,-0.0765 0.365165,-0.18275 0.509665,-0.31874 0.144499,-0.13601 0.256432,-0.29735 0.335765,-0.48436 0.07934,-0.18699 0.119116,-0.39118 0.119116,-0.61217 0,-0.221 -0.03978,-0.42345 -0.119116,-0.60762 -0.07934,-0.187 -0.191266,-0.34835 -0.335765,-0.48435 -0.1445,-0.13883 -0.314166,-0.24681 -0.509665,-0.32331 -0.192666,-0.0765 -0.405165,-0.11455 -0.637498,-0.11455 z m 14.623843,0 c -0.229499,0 -0.440265,0.0381 -0.632932,0.11455 -0.192665,0.0736 -0.361431,0.17991 -0.50593,0.31875 -0.144501,0.136 -0.256432,0.29776 -0.335765,0.48476 -0.07934,0.187 -0.119117,0.39077 -0.119117,0.61177 0,0.22099 0.03978,0.42518 0.119117,0.61217 0.07933,0.18701 0.189949,0.34967 0.331615,0.48851 0.144499,0.136 0.312849,0.24224 0.505515,0.31874 0.195499,0.0736 0.406682,0.11082 0.633347,0.11082 0.2465,0 0.470365,-0.0424 0.67153,-0.12742 0.201167,-0.085 0.371249,-0.20829 0.510082,-0.3698 l -0.356932,-0.34032 c -0.107666,0.11899 -0.228332,0.20861 -0.361498,0.26811 -0.133166,0.0566 -0.277466,0.0847 -0.433299,0.0847 -0.155833,0 -0.298816,-0.0254 -0.429149,-0.0764 -0.127499,-0.051 -0.239433,-0.12315 -0.335765,-0.21665 -0.0935,-0.0935 -0.167382,-0.20411 -0.221215,-0.33161 -0.051,-0.1275 -0.07636,-0.26785 -0.07636,-0.42085 0,-0.153 0.02536,-0.29294 0.07636,-0.42044 0.05384,-0.1275 0.127715,-0.23811 0.221215,-0.33161 0.09633,-0.0935 0.208266,-0.16565 0.335765,-0.21665 0.130333,-0.051 0.273316,-0.0768 0.429149,-0.0768 0.155833,0 0.300133,0.0297 0.433299,0.0892 0.133166,0.0567 0.253832,0.14323 0.361498,0.2594 l 0.356932,-0.33576 c -0.138833,-0.16433 -0.308915,-0.28763 -0.510082,-0.3698 -0.201165,-0.085 -0.423714,-0.12742 -0.66738,-0.12742 z m 14.831778,0 c -0.229499,0 -0.441996,0.0381 -0.637498,0.11455 -0.195502,0.0765 -0.365586,0.18448 -0.510081,0.32331 -0.144502,0.136 -0.256438,0.29735 -0.335765,0.48435 -0.07933,0.18417 -0.119116,0.38662 -0.119116,0.60762 0,0.22099 0.03978,0.42518 0.119116,0.61217 0.07933,0.18417 0.191263,0.34553 0.335765,0.48436 0.144495,0.13599 0.314579,0.24224 0.510081,0.31874 0.195502,0.0765 0.409314,0.11497 0.641648,0.11497 0.229499,0 0.44068,-0.0385 0.633347,-0.11497 0.195502,-0.0765 0.36558,-0.18275 0.510082,-0.31874 0.144494,-0.13601 0.25643,-0.29735 0.335765,-0.48436 0.07933,-0.18699 0.118701,-0.39118 0.118701,-0.61217 0,-0.221 -0.03936,-0.42345 -0.118701,-0.60762 -0.07934,-0.187 -0.191271,-0.34835 -0.335765,-0.48435 -0.144502,-0.13883 -0.31458,-0.24681 -0.510082,-0.32331 -0.192667,-0.0765 -0.405163,-0.11455 -0.637497,-0.11455 z m 5.674391,0 c -0.229499,0 -0.441995,0.0381 -0.637497,0.11455 -0.195502,0.0765 -0.365579,0.18448 -0.510081,0.32331 -0.144494,0.136 -0.256431,0.29735 -0.335766,0.48435 -0.07933,0.18417 -0.1187,0.38662 -0.1187,0.60762 0,0.22099 0.03937,0.42518 0.1187,0.61217 0.07934,0.18417 0.191272,0.34553 0.335766,0.48436 0.144502,0.13599 0.314579,0.24224 0.510081,0.31874 0.195502,0.0765 0.409314,0.11497 0.641648,0.11497 0.229499,0 0.44068,-0.0385 0.633347,-0.11497 0.195502,-0.0765 0.365579,-0.18275 0.510081,-0.31874 0.144494,-0.13601 0.256431,-0.29735 0.335765,-0.48436 0.07934,-0.18699 0.119116,-0.39118 0.119116,-0.61217 0,-0.221 -0.03978,-0.42345 -0.119116,-0.60762 -0.07933,-0.187 -0.191271,-0.34835 -0.335765,-0.48435 -0.144502,-0.13883 -0.314579,-0.24681 -0.510081,-0.32331 -0.192667,-0.0765 -0.405163,-0.11455 -0.637498,-0.11455 z m 22.553133,0 c -0.22949,0 -0.44199,0.0381 -0.63749,0.11455 -0.1955,0.0765 -0.36517,0.18448 -0.50967,0.32331 -0.1445,0.136 -0.25643,0.29735 -0.33577,0.48435 -0.0793,0.18417 -0.11911,0.38662 -0.11911,0.60762 0,0.22099 0.0398,0.42518 0.11911,0.61217 0.0794,0.18417 0.19127,0.34553 0.33577,0.48436 0.1445,0.13599 0.31417,0.24224 0.50967,0.31874 0.1955,0.0765 0.40972,0.11497 0.64206,0.11497 0.2295,0 0.44026,-0.0385 0.63293,-0.11497 0.1955,-0.0765 0.36558,-0.18275 0.51008,-0.31874 0.14449,-0.13601 0.25643,-0.29735 0.33576,-0.48436 0.0793,-0.18699 0.11912,-0.39118 0.11912,-0.61217 0,-0.221 -0.0398,-0.42345 -0.11912,-0.60762 -0.0794,-0.187 -0.19127,-0.34835 -0.33576,-0.48435 -0.1445,-0.13883 -0.31458,-0.24681 -0.51008,-0.32331 -0.19267,-0.0765 -0.40516,-0.11455 -0.6375,-0.11455 z m -69.614226,0.0423 v 2.97499 h 1.300312 c 0.322998,0 0.606331,-0.0621 0.849997,-0.18676 0.243666,-0.12467 0.433431,-0.2978 0.569431,-0.5188 0.136,-0.22383 0.204198,-0.48444 0.204198,-0.78193 0,-0.30034 -0.06819,-0.56093 -0.204198,-0.78193 -0.136,-0.221 -0.325765,-0.39371 -0.569431,-0.51839 -0.243666,-0.12466 -0.526999,-0.18718 -0.849997,-0.18718 z m 3.935385,0 v 2.97499 h 2.231241 v -0.46318 h -1.678827 v -0.82011 h 1.436445 v -0.45488 h -1.436445 v -0.77364 h 1.619477 v -0.46318 z m 10.609186,0 v 2.97499 h 1.300728 c 0.322999,0 0.60633,-0.0621 0.849996,-0.18676 0.243665,-0.12467 0.433433,-0.2978 0.569432,-0.5188 0.136,-0.22383 0.203783,-0.48444 0.203783,-0.78193 0,-0.30034 -0.06779,-0.56093 -0.203783,-0.78193 -0.135999,-0.221 -0.325767,-0.39371 -0.569432,-0.51839 -0.243666,-0.12466 -0.526997,-0.18718 -0.849996,-0.18718 z m 3.935385,0 v 2.97499 h 0.55283 v -2.97499 z m 1.780925,0 v 2.97499 h 0.552416 v -1.13886 h 1.436444 v -0.46733 h -1.436444 v -0.90562 h 1.619476 v -0.46318 z m 3.132288,0 v 2.97499 h 0.552415 v -2.97499 z m 6.110596,0 -1.338911,2.97499 h 0.569432 l 0.294677,-0.68854 h 1.487909 l 0.295922,0.68854 h 0.577732 l -1.343062,-2.97499 z m 2.690273,0 v 2.97499 h 0.548264 v -2.01376 l 1.640229,2.01376 h 0.45488 v -2.97499 h -0.548264 v 2.01418 l -1.640643,-2.01418 z m 3.867318,0 v 2.97499 h 1.300313 c 0.323001,0 0.60633,-0.0621 0.849996,-0.18676 0.243667,-0.12467 0.43385,-0.2978 0.569847,-0.5188 0.136005,-0.22383 0.203783,-0.48444 0.203783,-0.78193 0,-0.30034 -0.06778,-0.56093 -0.203783,-0.78193 -0.135997,-0.221 -0.32618,-0.39371 -0.569847,-0.51839 -0.243666,-0.12466 -0.526995,-0.18718 -0.849996,-0.18718 z m 15.07208,0 v 2.97499 h 0.55242 v -1.13886 h 1.43644 v -0.46733 h -1.43644 v -0.90562 h 1.61947 v -0.46318 z m 3.10656,0 v 1.67883 c 0,0.4335 0.11498,0.76493 0.34448,0.99443 0.23233,0.2295 0.5524,0.34448 0.9604,0.34448 0.40517,0 0.72259,-0.11498 0.95209,-0.34448 0.23233,-0.2295 0.34863,-0.56093 0.34863,-0.99443 v -1.67883 h -0.54411 v 1.65766 c 0,0.306 -0.0652,0.52855 -0.19548,0.66739 -0.13034,0.13883 -0.31615,0.20793 -0.55698,0.20793 -0.24083,0 -0.42755,-0.0691 -0.56072,-0.20793 -0.13032,-0.13884 -0.19548,-0.36139 -0.19548,-0.66739 v -1.65766 z m 3.36512,0 v 0.46775 h 0.98613 v 2.50724 h 0.55242 v -2.50724 h 0.98571 v -0.46775 z m 3.28419,0 v 1.67883 c 0,0.4335 0.11456,0.76493 0.34407,0.99443 0.23233,0.2295 0.5524,0.34448 0.9604,0.34448 0.40516,0 0.72259,-0.11498 0.95209,-0.34448 0.23234,-0.2295 0.34863,-0.56093 0.34863,-0.99443 v -1.67883 h -0.54411 v 1.65766 c 0,0.306 -0.0652,0.52855 -0.19548,0.66739 -0.13034,0.13883 -0.31574,0.20793 -0.55657,0.20793 -0.24083,0 -0.42797,-0.0691 -0.56113,-0.20793 -0.13033,-0.13884 -0.19548,-0.36139 -0.19548,-0.66739 v -1.65766 z m 3.80382,0 v 2.97499 h 0.55242 v -0.86701 h 0.67153 c 0.0398,0 0.0769,-0.002 0.11496,-0.005 l 0.6072,0.87158 h 0.59517 l -0.68357,-0.97493 c 0.0137,-0.006 0.0286,-0.009 0.0419,-0.0153 0.18984,-0.085 0.33587,-0.20525 0.43786,-0.36108 0.102,-0.15867 0.15274,-0.34712 0.15274,-0.56528 0,-0.3315 -0.11325,-0.59078 -0.33992,-0.77778 -0.22383,-0.187 -0.53427,-0.28057 -0.93093,-0.28057 z m -52.762045,0.44202 c 0.150167,0 0.288783,0.0258 0.416282,0.0768 0.1275,0.051 0.238116,0.12447 0.331615,0.2208 0.0935,0.0935 0.16565,0.20411 0.21665,0.33161 0.05384,0.12467 0.08093,0.26329 0.08093,0.41629 0,0.153 -0.0271,0.29335 -0.08093,0.42085 -0.051,0.12466 -0.12315,0.23528 -0.21665,0.33161 -0.0935,0.0935 -0.204115,0.16565 -0.331615,0.21665 -0.127499,0.051 -0.266115,0.0764 -0.416282,0.0764 -0.150166,0 -0.289198,-0.0254 -0.416698,-0.0764 -0.127499,-0.051 -0.238115,-0.12315 -0.331615,-0.21665 -0.0935,-0.0963 -0.166966,-0.20826 -0.2208,-0.33576 -0.051,-0.1275 -0.07678,-0.26653 -0.07678,-0.4167 0,-0.153 0.02578,-0.29162 0.07678,-0.41629 0.05384,-0.1275 0.1273,-0.23811 0.2208,-0.33161 0.09633,-0.0963 0.206948,-0.1698 0.331615,-0.2208 0.1275,-0.051 0.266532,-0.0768 0.416698,-0.0768 z m 29.455621,0 c 0.150172,0 0.289206,0.0258 0.416698,0.0768 0.127507,0.051 0.23812,0.12447 0.331614,0.2208 0.09348,0.0935 0.165626,0.20411 0.21665,0.33161 0.05383,0.12467 0.08052,0.26329 0.08052,0.41629 0,0.153 -0.02668,0.29335 -0.08052,0.42085 -0.051,0.12466 -0.123148,0.23528 -0.21665,0.33161 -0.09349,0.0935 -0.204107,0.16565 -0.331614,0.21665 -0.127492,0.051 -0.266526,0.0764 -0.416698,0.0764 -0.150165,0 -0.288783,-0.0254 -0.416282,-0.0764 -0.1275,-0.051 -0.238113,-0.12315 -0.331616,-0.21665 -0.09349,-0.0963 -0.166965,-0.20826 -0.2208,-0.33576 -0.05097,-0.1275 -0.07678,-0.26653 -0.07678,-0.4167 0,-0.153 0.02581,-0.29162 0.07678,-0.41629 0.05383,-0.1275 0.127306,-0.23811 0.2208,-0.33161 0.09634,-0.0963 0.206951,-0.1698 0.331616,-0.2208 0.127499,-0.051 0.266117,-0.0768 0.416282,-0.0768 z m 5.674807,0 c 0.150164,0 0.288775,0.0258 0.416283,0.0768 0.127491,0.051 0.238112,0.12447 0.331614,0.2208 0.09353,0.0935 0.165674,0.20411 0.216649,0.33161 0.05383,0.12467 0.08093,0.26329 0.08093,0.41629 0,0.153 -0.0271,0.29335 -0.08093,0.42085 -0.051,0.12466 -0.123155,0.23528 -0.216649,0.33161 -0.0935,0.0935 -0.204123,0.16565 -0.331614,0.21665 -0.127508,0.051 -0.266119,0.0764 -0.416283,0.0764 -0.150165,0 -0.289198,-0.0254 -0.416698,-0.0764 -0.127499,-0.051 -0.238112,-0.12315 -0.331615,-0.21665 -0.0935,-0.0963 -0.166973,-0.20826 -0.2208,-0.33576 -0.05103,-0.1275 -0.07636,-0.26653 -0.07636,-0.4167 0,-0.153 0.02533,-0.29162 0.07636,-0.41629 0.05383,-0.1275 0.127298,-0.23811 0.2208,-0.33161 0.09633,-0.0963 0.206951,-0.1698 0.331615,-0.2208 0.1275,-0.051 0.266533,-0.0768 0.416698,-0.0768 z m 22.553127,0 c 0.15018,0 0.28919,0.0258 0.4167,0.0768 0.12749,0.051 0.2377,0.12447 0.3312,0.2208 0.0935,0.0935 0.16604,0.20411 0.21707,0.33161 0.0538,0.12467 0.0805,0.26329 0.0805,0.41629 0,0.153 -0.0267,0.29335 -0.0805,0.42085 -0.051,0.12466 -0.12357,0.23528 -0.21707,0.33161 -0.0935,0.0935 -0.20371,0.16565 -0.3312,0.21665 -0.12751,0.051 -0.26652,0.0764 -0.4167,0.0764 -0.15015,0 -0.28878,-0.0254 -0.41627,-0.0764 -0.1275,-0.051 -0.23812,-0.12315 -0.33162,-0.21665 -0.0935,-0.0963 -0.16738,-0.20826 -0.22121,-0.33576 -0.051,-0.1275 -0.0764,-0.26653 -0.0764,-0.4167 0,-0.153 0.0254,-0.29162 0.0764,-0.41629 0.0538,-0.1275 0.1277,-0.23811 0.22121,-0.33161 0.0963,-0.0963 0.20695,-0.1698 0.33162,-0.2208 0.12749,-0.051 0.26612,-0.0768 0.41627,-0.0768 z m -69.062221,0.0257 h 0.72258 c 0.221,0 0.413399,0.0424 0.577732,0.12741 0.164332,0.085 0.290681,0.20394 0.378514,0.35694 0.09067,0.15016 0.135717,0.32856 0.135717,0.5354 0,0.204 -0.04505,0.38281 -0.135717,0.53581 -0.08783,0.153 -0.214182,0.27193 -0.378514,0.35693 -0.164333,0.085 -0.356732,0.12742 -0.577732,0.12742 h -0.72258 z m 14.544571,0 h 0.72258 c 0.220999,0 0.413814,0.0424 0.578147,0.12741 0.164333,0.085 0.290266,0.20394 0.378099,0.35694 0.09067,0.15016 0.136133,0.32856 0.136133,0.5354 0,0.204 -0.04547,0.38281 -0.136133,0.53581 -0.08783,0.153 -0.213766,0.27193 -0.378099,0.35693 -0.164333,0.085 -0.357148,0.12742 -0.578147,0.12742 h -0.72258 z m 21.516786,0 h 0.722579 c 0.221002,0 0.413824,0.0424 0.578148,0.12741 0.16434,0.085 0.290267,0.20394 0.378099,0.35694 0.09068,0.15016 0.136132,0.32856 0.136132,0.5354 0,0.204 -0.04546,0.38281 -0.136132,0.53581 -0.08783,0.153 -0.213759,0.27193 -0.378099,0.35693 -0.164324,0.085 -0.357146,0.12742 -0.578148,0.12742 h -0.722579 z m 28.631774,0 h 0.64579 c 0.24367,0 0.42643,0.0508 0.54827,0.15274 0.12466,0.102 0.18718,0.24802 0.18718,0.43786 0,0.187 -0.0625,0.33303 -0.18718,0.43786 -0.12184,0.10484 -0.3046,0.1573 -0.54827,0.1573 h -0.64579 z m -35.474081,0.083 0.55947,1.30239 h -1.116451 z"
       inkscape:export-filename="minha-logo-branca.png"
       inkscape:export-xdpi="96"
       inkscape:export-ydpi="96" /></g></svg>
